<?xml version="1.0" encoding="UTF-8"?><svg id="a" xmlns="http://www.w3.org/2000/svg" viewBox="0 0 1004.28 973.07"><defs><style>.g,.h,.i,.j{stroke:#000;stroke-miterlimit:10;}.g,.i{stroke-width:5px;}.k{fill:#0067cf;}.k,.l,.m,.n,.o{stroke-width:0px;}.m{fill:#f5f3c1;}.n{fill:red;}.h{fill:#dcb253;stroke-width:8px;}.p{opacity:.4;}.o{fill:#fff;}.q{opacity:.3;}.i,.j{fill:none;}.j{stroke-width:7px;}.r{opacity:.25;}</style></defs><g id="b"><path class="o" d="m514.65,18.5l94.4,67.88,22.6,17.12,36.04,25.89,318.96,231.11-180,555-20.66-4.35-5.47,16.85-179.12-37.71-299.72,62.82,14.05-44.06-103.21,26.85L32.52,380.9l13.56-9.82-3.43-10.58L514.65,18.5m-.03-18.5l-8.77,6.35L33.85,348.35l-8.83,6.4,3.36,10.37.07.2-4.72,3.42-8.83,6.4,3.36,10.37,180,555,4.36,13.45,13.68-3.56,76.87-20-5.78,18.14-7.82,24.52,25.19-5.28,296.64-62.17,176.04,37.06,13.2,2.78,4.16-12.83,1.31-4.02,7.46,1.57,13.2,2.78,4.16-12.83,180-555,3.36-10.37-8.83-6.4-318.96-231.11-.02-.02-.03-.02-35.88-25.78-22.45-17.01-.15-.11-.15-.11L523.4,6.32l-8.79-6.32h0Z"/></g><polygon class="l" points="565.64 117.29 636.14 85.64 638.18 885.14 297.99 956.43 565.64 117.29"/><path class="l" d="m633.65,89.5l2.03,793.61-334,70L567.68,119.11l65.97-29.61m4.98-7.72l-7.03,3.15-65.97,29.61-2.04.91-.68,2.13-266,834-2.61,8.17,8.4-1.76,334-70,3.98-.84v-4.07s-2.04-793.61-2.04-793.61l-.02-7.7h0Z"/><polyline class="l" points="960.52 373 780.52 928 272.08 820.96"/><polyline class="i" points="960.52 373 780.52 928 272.08 820.96"/><polyline class="l" points="415.83 103.16 32.52 380.9 212.52 935.9 762.25 792.87"/><polyline class="i" points="415.83 103.16 32.52 380.9 212.52 935.9 762.25 792.87"/><polygon class="n" points="277.49 806.65 642.06 107.73 989.59 359.54 808.33 918.41 277.49 806.65"/><path class="l" d="m642.93,111.45l343.71,249.05-180,555-525.42-110.61L642.93,111.45m-1.76-7.45l-2.68,5.13-361.71,693.43-3.05,5.85,6.45,1.36,525.42,110.61,4.4.93,1.39-4.28,180-555,1.12-3.46-2.94-2.13-343.71-249.05-4.69-3.4h0Z"/><polygon class="k" points="39.71 359.54 514.65 15.41 645.82 110.45 431.98 863.62 221 918.51 39.71 359.54"/><path class="l" d="m514.65,18.5l128.29,92.95-212.97,750.1-207.32,53.94L42.65,360.5,514.65,18.5m0-6.17l-2.93,2.13L39.71,356.45l-2.94,2.13,1.12,3.46,180,555,1.45,4.48,4.56-1.19,207.32-53.94,2.77-.72.78-2.75L647.74,112.82l.95-3.36-2.83-2.05L517.58,14.45l-2.93-2.13h0Z"/><polygon class="l" points="590.63 98.3 659.13 66.6 663.19 866.14 322.99 937.43 590.63 98.3"/><path class="l" d="m656.65,70.5l4.03,793.61-334,70L592.68,100.11l63.97-29.61m4.96-7.81l-7.06,3.27-63.97,29.61-2,.92-.67,2.09-266,834-2.61,8.17,8.4-1.76,334-70,4-.84-.02-4.08-4.03-793.61-.04-7.78h0Z"/><polygon class="o" points="607.61 82.67 680.15 50.66 680.15 850.53 339.96 921.83 607.61 82.67"/><path class="l" d="m677.65,54.5v794l-334,70L609.65,84.5l68-30m5-7.67l-7.02,3.1-68,30-2.06.91-.68,2.15-266,834-2.61,8.17,8.4-1.76,334-70,3.97-.83V46.83h0Z"/><path class="l" d="m677.65,54.5v794l-334,70L609.65,84.5l68-30m5-7.67l-7.02,3.1-68,30-2.06.91-.68,2.15-266,834-2.61,8.17,8.4-1.76,334-70,3.97-.83V46.83h0Z"/><g id="c"><path class="l" d="m514.65,18.5l94.4,67.88.6-1.88,68-30v82l309,224-180,555-20.66-4.35-5.47,16.85-179.12-37.71-299.72,62.82,14.05-44.06-103.21,26.85L32.52,380.9l13.56-9.82-3.43-10.58L514.65,18.5m-.01-6.17l-2.92,2.12L39.71,356.45l-2.94,2.13,1.12,3.46,2.31,7.12-10.61,7.69-2.94,2.13,1.12,3.46,180,555,1.45,4.48,4.56-1.19,94.43-24.57-11.3,35.42-2.61,8.17,8.4-1.76,298.69-62.6,178.09,37.49,4.4.93,1.39-4.28,4.08-12.58,16.26,3.42,4.4.93,1.39-4.28,180-555,1.12-3.46-2.94-2.13-306.93-222.5V46.83l-7.02,3.1-67.37,29.72-90.69-65.21-2.93-2.11h0Z"/></g><polygon class="g" points="936.63 415.01 973.7 300.93 689.11 300.76 675.2 321.63 681.98 300.76 648.67 300.74 648.68 300.73 625.46 300.72 625.47 300.68 428.7 300.68 414.73 321.63 421.53 300.68 130.49 300.68 3.44 691.69 127.42 691.69 172.35 553.41 355.35 553.41 392.54 438.96 209.54 438.96 217.28 415.12 460.47 415.12 370.61 691.69 494.59 691.69 584.45 415.12 602.42 415.12 611.51 415.12 644.9 415.12 555.04 691.69 846.75 691.64 883.82 577.56 716.2 577.25 723.95 553.41 874.53 553.33 910.59 439.24 761.14 438.96 768.88 415.12 936.63 415.01"/><polygon class="h" points="953.78 404.14 990.85 290.05 706.26 289.89 692.35 310.75 699.13 289.89 665.82 289.87 665.83 289.86 642.61 289.84 642.62 289.8 445.85 289.8 431.88 310.75 438.69 289.8 147.64 289.8 20.59 680.82 144.57 680.82 189.5 542.53 372.5 542.53 409.69 428.09 226.69 428.09 234.43 404.25 477.62 404.25 387.76 680.82 511.74 680.82 601.6 404.25 619.57 404.25 628.66 404.25 662.05 404.25 572.19 680.82 863.9 680.77 900.97 566.68 733.35 566.37 741.1 542.53 891.68 542.45 927.74 428.37 778.29 428.09 786.03 404.25 953.78 404.14"/><g id="d" class="r"><polygon class="l" points="100.05 621.71 191.41 346.59 147.64 289.8 20.59 680.82 100.05 621.71"/><polygon class="l" points="468.04 622.21 557.9 345.58 477.62 404.25 387.76 680.82 468.04 622.21"/><polygon class="l" points="653.81 622.21 743.06 345.58 662.05 404.25 572.19 680.82 653.81 622.21"/></g><g id="e" class="p"><polygon class="l" points="144.57 680.82 100.05 621.71 20.59 680.82 144.57 680.82"/><polygon class="l" points="189.5 542.53 144.57 485.31 331.14 485.31 372.5 542.53 189.5 542.53"/><polyline class="l" points="191.41 346.59 234.43 404.25 477.62 404.25 557.9 345.58 601.6 404.25 662.05 404.25 743.06 345.58 786.03 404.25 953.78 404.14 910.85 345.58"/><polygon class="l" points="468.04 622.21 511.74 680.82 387.76 680.82 468.04 622.21"/><polygon class="l" points="653.81 622.21 822.41 622.21 863.9 680.77 572.19 680.82 653.81 622.21"/><polygon class="l" points="697.98 485.31 851.49 485.31 891.68 542.45 741.1 542.53 697.98 485.31"/></g><g id="f" class="q"><polygon class="m" points="226.69 428.09 144.57 485.31 331.14 485.31 409.69 428.09 226.69 428.09"/><polygon class="m" points="147.64 289.8 191.41 346.59 910.85 345.58 990.85 290.05 706.26 289.89 692.35 310.75 699.13 289.89 445.85 289.8 431.88 310.75 438.69 289.8 147.64 289.8"/><polygon class="m" points="697.98 485.31 851.49 485.31 927.74 428.37 778.29 428.09 697.98 485.31"/><polygon class="m" points="653.81 622.21 733.35 566.37 900.97 566.68 822.41 622.21 653.81 622.21"/></g><polygon class="j" points="953.78 404.14 990.85 290.05 706.26 289.89 692.35 310.75 699.13 289.89 665.82 289.87 665.83 289.86 642.61 289.84 642.62 289.8 445.85 289.8 431.88 310.75 438.69 289.8 147.64 289.8 20.59 680.82 144.57 680.82 189.5 542.53 372.5 542.53 409.69 428.09 226.69 428.09 234.43 404.25 477.62 404.25 387.76 680.82 511.74 680.82 601.6 404.25 619.57 404.25 628.66 404.25 662.05 404.25 572.19 680.82 863.9 680.77 900.97 566.68 733.35 566.37 741.1 542.53 891.68 542.45 927.74 428.37 778.29 428.09 786.03 404.25 953.78 404.14"/></svg>